<svg xmlns="http://www.w3.org/2000/svg" xmlns:xlink="http://www.w3.org/1999/xlink" width="1024" zoomAndPan="magnify" viewBox="0 0 768 383.999986" height="512" preserveAspectRatio="xMidYMid meet" version="1.0"><defs><g/><clipPath id="416e5843d5"><path d="M 28 49 L 322 49 L 322 346 L 28 346 Z M 28 49 " clip-rule="nonzero"/></clipPath><clipPath id="b6a579f463"><path d="M -99.410156 123.710938 L 248.1875 -76.738281 L 376.324219 145.464844 L 28.726562 345.910156 Z M -99.410156 123.710938 " clip-rule="nonzero"/></clipPath><clipPath id="0ba7063524"><path d="M -99.519531 123.773438 L 248.078125 -76.671875 L 376.210938 145.527344 L 28.617188 345.976562 Z M -99.519531 123.773438 " clip-rule="nonzero"/></clipPath><clipPath id="d185d2b189"><path d="M 28 49 L 322 49 L 322 346 L 28 346 Z M 28 49 " clip-rule="nonzero"/></clipPath><clipPath id="950bafe2f9"><path d="M 102.144531 -77.425781 L 449.148438 124.039062 L 320.359375 345.863281 L -26.644531 144.398438 Z M 102.144531 -77.425781 " clip-rule="nonzero"/></clipPath><clipPath id="475556f098"><path d="M 449.300781 124.128906 L 102.296875 -77.339844 L -26.492188 144.484375 L 320.515625 345.953125 Z M 449.300781 124.128906 " clip-rule="nonzero"/></clipPath></defs><g clip-path="url(#416e5843d5)"><g clip-path="url(#b6a579f463)"><g clip-path="url(#0ba7063524)"><path fill="#d9d9d9" d="M 44.980469 201.289062 L 70.652344 201.304688 C 72.855469 201.300781 74.65625 203.105469 74.652344 205.3125 L 74.636719 230.984375 C 74.640625 233.1875 72.832031 234.980469 70.640625 234.980469 L 44.957031 234.96875 C 42.753906 234.964844 40.953125 233.167969 40.960938 230.960938 L 40.96875 205.28125 C 40.976562 203.09375 42.777344 201.292969 44.980469 201.289062 M 45.007812 148.8125 L 70.679688 148.828125 C 72.882812 148.824219 74.683594 150.628906 74.679688 152.835938 L 74.664062 178.507812 C 74.667969 180.710938 72.863281 182.511719 70.65625 182.507812 L 44.984375 182.492188 C 42.785156 182.496094 40.988281 180.6875 40.984375 178.484375 L 40.996094 152.804688 C 41.003906 150.617188 42.804688 148.816406 45.007812 148.8125 Z M 45.027344 96.339844 L 70.699219 96.355469 C 72.902344 96.351562 74.703125 98.15625 74.699219 100.363281 L 74.683594 126.035156 C 74.6875 128.238281 72.878906 130.03125 70.675781 130.035156 L 45.015625 130.023438 C 42.8125 130.027344 41.019531 128.21875 41.015625 126.015625 L 41.03125 100.34375 C 41.027344 98.140625 42.832031 96.339844 45.027344 96.339844 Z M 279.632812 148.9375 L 305.304688 148.953125 C 307.507812 148.949219 309.300781 150.757812 309.3125 152.957031 L 309.296875 178.628906 C 309.300781 180.832031 307.496094 182.632812 305.289062 182.628906 L 279.617188 182.613281 C 277.410156 182.609375 275.613281 180.8125 275.617188 178.605469 L 275.628906 152.925781 C 275.621094 150.738281 277.425781 148.933594 279.632812 148.9375 Z M 279.660156 96.460938 L 305.332031 96.476562 C 307.535156 96.472656 309.328125 98.28125 309.339844 100.480469 L 309.328125 126.160156 C 309.332031 128.363281 307.527344 130.164062 305.328125 130.15625 L 279.648438 130.144531 C 277.453125 130.144531 275.652344 128.339844 275.648438 126.136719 L 275.664062 100.464844 C 275.65625 98.253906 277.453125 96.457031 279.660156 96.460938 Z M 263.257812 50 L 275.679688 50.003906 L 275.667969 73.667969 C 275.671875 75.867188 277.460938 77.667969 279.667969 77.671875 L 305.339844 77.6875 C 307.542969 77.683594 309.34375 75.894531 309.347656 73.6875 L 309.359375 50.027344 L 321.472656 50.03125 L 321.402344 176.707031 L 263.183594 210.277344 Z M 74.613281 281.441406 C 74.613281 283.644531 72.8125 285.445312 70.605469 285.441406 L 44.933594 285.425781 C 42.730469 285.429688 40.933594 283.621094 40.933594 281.421875 L 40.941406 257.757812 C 40.945312 255.5625 42.746094 253.761719 44.949219 253.757812 L 70.621094 253.773438 C 72.824219 253.769531 74.625 255.574219 74.621094 257.78125 Z M 86.703125 312.039062 L 86.71875 281.453125 L 86.734375 257.796875 L 86.839844 49.910156 L 74.738281 49.90625 L 74.71875 73.554688 C 74.722656 75.757812 72.917969 77.558594 70.710938 77.554688 L 45.039062 77.539062 C 42.84375 77.539062 41.035156 75.738281 41.039062 73.53125 L 41.058594 49.886719 L 28.632812 49.875 L 28.523438 257.761719 L 28.511719 281.414062 L 28.484375 345.609375 L 42.84375 337.332031 C 41.6875 336.628906 40.914062 335.355469 40.910156 333.90625 L 40.925781 308.230469 C 40.921875 306.03125 42.730469 304.234375 44.933594 304.230469 L 70.605469 304.246094 C 72.808594 304.242188 74.609375 306.046875 74.601562 308.246094 L 74.59375 319.023438 Z M 114.820312 295.824219 L 114.828125 281.464844 L 114.84375 257.808594 L 114.871094 197.011719 C 114.875 188.65625 121.710938 181.832031 130.0625 181.832031 L 219.90625 181.878906 C 228.25 181.886719 235.082031 188.71875 235.074219 197.074219 L 235.0625 226.484375 Z M 235.148438 49.976562 L 235.109375 134.4375 C 235.105469 142.785156 228.273438 149.617188 219.917969 149.613281 L 130.078125 149.570312 C 121.730469 149.5625 114.898438 142.730469 114.902344 134.378906 L 114.9375 49.917969 Z M 235.148438 49.976562 " fill-opacity="1" fill-rule="evenodd"/></g></g></g><g clip-path="url(#d185d2b189)"><g clip-path="url(#950bafe2f9)"><g clip-path="url(#475556f098)"><path fill="#d9d9d9" d="M 304.609375 201.242188 L 278.9375 201.179688 C 276.738281 201.171875 274.929688 202.96875 274.925781 205.175781 L 274.867188 230.847656 C 274.855469 233.050781 276.660156 234.847656 278.855469 234.855469 L 304.535156 234.917969 C 306.742188 234.921875 308.542969 233.132812 308.546875 230.925781 L 308.609375 205.242188 C 308.613281 203.058594 306.8125 201.25 304.609375 201.242188 M 304.738281 148.765625 L 279.066406 148.703125 C 276.863281 148.695312 275.054688 150.492188 275.054688 152.699219 L 274.996094 178.371094 C 274.984375 180.574219 276.78125 182.378906 278.988281 182.382812 L 304.660156 182.441406 C 306.863281 182.453125 308.664062 180.648438 308.671875 178.449219 L 308.738281 152.765625 C 308.738281 150.582031 306.941406 148.773438 304.738281 148.765625 Z M 304.875 96.292969 L 279.199219 96.230469 C 277 96.222656 275.191406 98.019531 275.191406 100.226562 L 275.128906 125.898438 C 275.121094 128.101562 276.921875 129.902344 279.125 129.910156 L 304.785156 129.972656 C 306.988281 129.984375 308.785156 128.179688 308.796875 125.980469 L 308.855469 100.304688 C 308.867188 98.105469 307.066406 96.296875 304.875 96.292969 Z M 70.113281 148.203125 L 44.441406 148.140625 C 42.238281 148.132812 40.441406 149.933594 40.421875 152.132812 L 40.363281 177.804688 C 40.351562 180.007812 42.152344 181.8125 44.359375 181.816406 L 70.03125 181.875 C 72.238281 181.878906 74.039062 180.085938 74.042969 177.882812 L 74.105469 152.199219 C 74.121094 150.011719 72.320312 148.203125 70.113281 148.203125 Z M 70.242188 95.726562 L 44.570312 95.664062 C 42.367188 95.65625 40.566406 97.457031 40.550781 99.65625 L 40.484375 125.335938 C 40.476562 127.539062 42.273438 129.34375 44.472656 129.34375 L 70.152344 129.40625 C 72.347656 129.414062 74.15625 127.613281 74.164062 125.414062 L 74.226562 99.738281 C 74.238281 97.53125 72.449219 95.726562 70.242188 95.726562 Z M 86.78125 49.3125 L 74.359375 49.277344 L 74.300781 72.941406 C 74.289062 75.140625 72.496094 76.9375 70.289062 76.933594 L 44.617188 76.875 C 42.414062 76.867188 40.617188 75.070312 40.621094 72.863281 L 40.679688 49.203125 L 28.566406 49.171875 L 28.265625 175.84375 L 86.382812 209.589844 Z M 274.746094 281.304688 C 274.734375 283.507812 276.535156 285.316406 278.742188 285.316406 L 304.414062 285.378906 C 306.617188 285.386719 308.414062 283.585938 308.425781 281.382812 L 308.484375 257.71875 C 308.488281 255.527344 306.691406 253.71875 304.488281 253.710938 L 278.816406 253.648438 C 276.613281 253.640625 274.804688 255.4375 274.804688 257.644531 Z M 262.5625 311.867188 L 262.636719 281.28125 L 262.691406 257.625 L 263.195312 49.738281 L 275.300781 49.773438 L 275.25 73.417969 C 275.238281 75.621094 277.039062 77.425781 279.242188 77.429688 L 304.917969 77.488281 C 307.109375 77.496094 308.925781 75.703125 308.929688 73.496094 L 308.976562 49.847656 L 321.40625 49.871094 L 320.902344 257.761719 L 320.847656 281.414062 L 320.683594 345.609375 L 306.347656 337.289062 C 307.507812 336.589844 308.285156 335.316406 308.292969 333.867188 L 308.351562 308.195312 C 308.363281 305.992188 306.558594 304.191406 304.359375 304.183594 L 278.683594 304.121094 C 276.484375 304.113281 274.675781 305.910156 274.679688 308.109375 L 274.652344 318.886719 Z M 234.496094 295.570312 L 234.527344 281.207031 L 234.582031 257.554688 L 234.734375 196.757812 C 234.753906 188.402344 227.941406 181.558594 219.585938 181.535156 L 129.746094 181.316406 C 121.398438 181.296875 114.546875 188.109375 114.53125 196.46875 L 114.457031 225.878906 Z M 114.886719 49.371094 L 114.679688 133.832031 C 114.660156 142.175781 121.472656 149.03125 129.824219 149.050781 L 219.667969 149.269531 C 228.011719 149.289062 234.867188 142.476562 234.886719 134.125 L 235.097656 49.664062 Z M 114.886719 49.371094 " fill-opacity="1" fill-rule="evenodd"/></g></g></g><g fill="#d9d9d9" fill-opacity="1"><g transform="translate(513.497902, 253.575928)"><g><path d="M 26.921875 0 L 10.125 0 L 10.125 -80.515625 L 56.28125 -80.515625 L 56.28125 -66.515625 L 26.921875 -66.515625 L 26.921875 -45.765625 L 54.25 -45.765625 L 54.25 -31.828125 L 26.921875 -31.828125 Z M 26.921875 0 "/></g></g></g><g fill="#d9d9d9" fill-opacity="1"><g transform="translate(575.395946, 253.575928)"><g><path d="M 10.125 0 L 10.125 -80.515625 L 27.203125 -80.515625 L 27.203125 -14.09375 L 59.859375 -14.09375 L 59.859375 0 Z M 10.125 0 "/></g></g></g><g fill="#d9d9d9" fill-opacity="1"><g transform="translate(639.111298, 253.575928)"><g><path d="M 10.125 0 L 10.125 -80.515625 L 27.203125 -80.515625 L 27.203125 0 Z M 10.125 0 "/></g></g></g><g fill="#d9d9d9" fill-opacity="1"><g transform="translate(676.448375, 253.575928)"><g><path d="M 75.21875 0 L 55.734375 0 L 37 -30.453125 L 18.28125 0 L 0 0 L 26.703125 -41.515625 L 1.703125 -80.515625 L 20.546875 -80.515625 L 37.890625 -51.546875 L 54.90625 -80.515625 L 73.296875 -80.515625 L 48.015625 -40.578125 Z M 75.21875 0 "/></g></g></g><path stroke-linecap="butt" transform="matrix(2.141048, 0, 0, 2.141048, 253.495746, 137.367836)" fill="none" stroke-linejoin="miter" d="M 22.185564 16.671589 C 28.514607 16.671589 33.400504 18.289883 36.846904 21.528294 C 40.300602 24.757584 42.028363 29.466509 42.028363 35.655068 C 42.028363 41.843628 40.300602 46.556201 36.846904 49.794613 C 33.400504 53.023903 28.514607 54.638548 22.185564 54.638548 C 15.858346 54.638548 10.976098 53.033025 7.53882 49.820156 C 4.110665 46.599988 2.395675 41.878292 2.395675 35.655068 C 2.395675 29.431844 4.110665 24.713797 7.53882 21.502752 C 10.976098 18.282585 15.858346 16.671589 22.185564 16.671589 Z M 22.185564 25.472771 C 19.660515 25.472771 17.737537 26.237219 16.418455 27.76429 C 15.10667 29.293185 14.451689 31.352998 14.451689 33.9492 L 14.451689 37.360936 C 14.451689 39.955314 15.10667 42.016951 16.418455 43.544022 C 17.737537 45.072917 19.660515 45.835541 22.185564 45.835541 C 24.712438 45.835541 26.639065 45.072917 27.96727 43.544022 C 29.304597 42.016951 29.972349 39.955314 29.972349 37.360936 L 29.972349 33.9492 C 29.972349 31.352998 29.304597 29.293185 27.96727 27.76429 C 26.639065 26.237219 24.712438 25.472771 22.185564 25.472771 Z M 63.783193 16.671589 C 68.479347 16.671589 72.338074 17.622131 75.357551 19.523216 C 78.378853 21.4243 79.924168 24.241263 79.993497 27.972278 L 79.993497 28.610838 L 68.951881 28.610838 L 68.951881 28.40285 C 68.951881 27.335542 68.561447 26.445207 67.78058 25.733669 C 66.999712 25.02213 65.810166 24.666361 64.211941 24.666361 C 62.641083 24.666361 61.438766 24.899892 60.606813 25.368777 C 59.773036 25.828541 59.35706 26.397771 59.35706 27.074645 C 59.35706 28.028836 59.924466 28.740375 61.061103 29.20926 C 62.199564 29.669023 64.029495 30.147031 66.556369 30.641459 C 69.508341 31.249004 71.933045 31.883915 73.834129 32.542544 C 75.735214 33.193875 77.397295 34.266656 78.820371 35.759062 C 80.245273 37.251468 80.973231 39.278441 81.007896 41.839979 C 81.007896 46.178539 79.541032 49.398706 76.607305 51.500481 C 73.673577 53.591309 69.754642 54.638548 64.850501 54.638548 C 59.121705 54.638548 54.664555 53.678883 51.479053 51.761378 C 48.302672 49.842049 46.71357 46.448558 46.71357 41.579081 L 57.85918 41.579081 C 57.85918 43.427257 58.337188 44.664239 59.291379 45.290028 C 60.254693 45.906694 61.752572 46.213203 63.783193 46.213203 C 65.2756 46.213203 66.508933 46.052651 67.481369 45.731546 C 68.461102 45.410442 68.951881 44.755462 68.951881 43.766606 C 68.951881 42.872622 68.410017 42.203046 67.324465 41.761527 C 66.238913 41.318184 64.472838 40.845649 62.024416 40.342099 C 59.039604 39.709013 56.56564 39.04491 54.604348 38.349792 C 52.650354 37.654673 50.944487 36.508914 49.486745 34.912514 C 48.029004 33.306991 47.299221 31.137712 47.299221 28.40285 C 47.299221 24.38357 48.853658 21.4243 51.960709 19.523216 C 55.076883 17.622131 59.017711 16.671589 63.783193 16.671589 Z M 107.987972 26.696982 L 107.987972 53.999987 L 96.205626 53.999987 L 96.205626 26.696982 L 84.149611 26.696982 L 84.149611 17.310149 L 119.992902 17.310149 L 119.992902 26.696982 Z M 107.987972 26.696982 " stroke="#242424" stroke-width="10.599994" stroke-opacity="1" stroke-miterlimit="4"/><g fill="#d9d9d9" fill-opacity="1"><g transform="translate(253.495746, 252.984402)"><g><path d="M 47.5 -79.9375 C 61.050781 -79.9375 71.519531 -76.472656 78.90625 -69.546875 C 86.289062 -62.617188 89.984375 -52.53125 89.984375 -39.28125 C 89.984375 -26.03125 86.289062 -15.941406 78.90625 -9.015625 C 71.519531 -2.085938 61.050781 1.375 47.5 1.375 C 33.945312 1.375 23.5 -2.066406 16.15625 -8.953125 C 8.8125 -15.847656 5.140625 -25.957031 5.140625 -39.28125 C 5.140625 -52.601562 8.8125 -62.707031 16.15625 -69.59375 C 23.5 -76.488281 33.945312 -79.9375 47.5 -79.9375 Z M 47.5 -61.09375 C 42.09375 -61.09375 37.976562 -59.453125 35.15625 -56.171875 C 32.34375 -52.898438 30.9375 -48.488281 30.9375 -42.9375 L 30.9375 -35.625 C 30.9375 -30.070312 32.34375 -25.65625 35.15625 -22.375 C 37.976562 -19.101562 42.09375 -17.46875 47.5 -17.46875 C 52.90625 -17.46875 57.035156 -19.101562 59.890625 -22.375 C 62.742188 -25.65625 64.171875 -30.070312 64.171875 -35.625 L 64.171875 -42.9375 C 64.171875 -48.488281 62.742188 -52.898438 59.890625 -56.171875 C 57.035156 -59.453125 52.90625 -61.09375 47.5 -61.09375 Z M 47.5 -61.09375 "/></g></g></g><g fill="#d9d9d9" fill-opacity="1"><g transform="translate(348.605907, 252.984402)"><g><path d="M 41.453125 -79.9375 C 51.492188 -79.9375 59.75 -77.898438 66.21875 -73.828125 C 72.695312 -69.753906 76.007812 -63.71875 76.15625 -55.71875 L 76.15625 -54.359375 L 52.53125 -54.359375 L 52.53125 -54.8125 C 52.53125 -57.09375 51.691406 -58.992188 50.015625 -60.515625 C 48.335938 -62.035156 45.785156 -62.796875 42.359375 -62.796875 C 39.015625 -62.796875 36.445312 -62.300781 34.65625 -61.3125 C 32.863281 -60.320312 31.96875 -59.109375 31.96875 -57.671875 C 31.96875 -55.609375 33.1875 -54.082031 35.625 -53.09375 C 38.0625 -52.101562 41.984375 -51.078125 47.390625 -50.015625 C 53.703125 -48.722656 58.894531 -47.367188 62.96875 -45.953125 C 67.039062 -44.546875 70.597656 -42.242188 73.640625 -39.046875 C 76.691406 -35.847656 78.253906 -31.507812 78.328125 -26.03125 C 78.328125 -16.75 75.1875 -9.859375 68.90625 -5.359375 C 62.625 -0.867188 54.234375 1.375 43.734375 1.375 C 31.472656 1.375 21.9375 -0.679688 15.125 -4.796875 C 8.3125 -8.910156 4.90625 -16.179688 4.90625 -26.609375 L 28.78125 -26.609375 C 28.78125 -22.648438 29.804688 -20.003906 31.859375 -18.671875 C 33.910156 -17.335938 37.109375 -16.671875 41.453125 -16.671875 C 44.648438 -16.671875 47.296875 -17.015625 49.390625 -17.703125 C 51.484375 -18.390625 52.53125 -19.796875 52.53125 -21.921875 C 52.53125 -23.828125 51.367188 -25.253906 49.046875 -26.203125 C 46.722656 -27.160156 42.9375 -28.171875 37.6875 -29.234375 C 31.289062 -30.597656 26 -32.019531 21.8125 -33.5 C 17.625 -34.988281 13.96875 -37.445312 10.84375 -40.875 C 7.726562 -44.300781 6.171875 -48.945312 6.171875 -54.8125 C 6.171875 -63.414062 9.5 -69.753906 16.15625 -73.828125 C 22.820312 -77.898438 31.253906 -79.9375 41.453125 -79.9375 Z M 41.453125 -79.9375 "/></g></g></g><g fill="#d9d9d9" fill-opacity="1"><g transform="translate(431.042312, 252.984402)"><g><path d="M 53.671875 -58.46875 L 53.671875 0 L 28.4375 0 L 28.4375 -58.46875 L 2.625 -58.46875 L 2.625 -78.5625 L 79.359375 -78.5625 L 79.359375 -58.46875 Z M 53.671875 -58.46875 "/></g></g></g></svg>